<?xml version="1.0" encoding="UTF-8" standalone="no"?>
<svg
   width="123"
   height="97"
   viewBox="0 0 123 97"
   fill="none"
   stroke="none"
   version="1.1"
   id="svg7"
   sodipodi:docname="Familykj_family_restaurant_logo_rev.svg"
   inkscape:version="1.3.2 (091e20e, 2023-11-25, custom)"
   xmlns:inkscape="http://www.inkscape.org/namespaces/inkscape"
   xmlns:sodipodi="http://sodipodi.sourceforge.net/DTD/sodipodi-0.dtd"
   xmlns:xlink="http://www.w3.org/1999/xlink"
   xmlns="http://www.w3.org/2000/svg"
   xmlns:svg="http://www.w3.org/2000/svg">
  <sodipodi:namedview
     id="namedview7"
     pagecolor="#505050"
     bordercolor="#eeeeee"
     borderopacity="1"
     inkscape:showpageshadow="0"
     inkscape:pageopacity="0"
     inkscape:pagecheckerboard="0"
     inkscape:deskcolor="#505050"
     inkscape:zoom="5.2474227"
     inkscape:cx="61.554028"
     inkscape:cy="48.5"
     inkscape:window-width="1366"
     inkscape:window-height="705"
     inkscape:window-x="-8"
     inkscape:window-y="-8"
     inkscape:window-maximized="1"
     inkscape:current-layer="Family" />
  <defs
     id="defs2">
    <rect
       id="rect_1"
       x="0"
       y="0"
       width="75"
       height="29" />
    <clipPath
       id="clip_path_2">
      <use
         xlink:href="#rect_1"
         id="use1" />
    </clipPath>
    <rect
       id="rect_3"
       x="0"
       y="0"
       width="65"
       height="15" />
    <clipPath
       id="clip_path_4">
      <use
         xlink:href="#rect_3"
         id="use2" />
    </clipPath>
  </defs>
  <g
     id="Family"
     opacity="1">
    <path
       d="M118 0L118 0L118 97L0 97L0 0L118 0Z"
       style="mix-blend-mode:normal;"
       id="path2" />
    <g
       style="mix-blend-mode:normal;"
       id="g3">
      <path
         d="M5.8125 63.9375L5.8125 15.9375L11.625 15.9375L11.625 39.75L12.1875 39.75L33.75 15.9375L41.3438 15.9375L21.1875 37.5938L41.3438 63.9375L34.3125 63.9375L17.625 41.625L11.625 48.375L11.625 63.9375L5.8125 63.9375Z"
         style="fill:#EFC000;"
         id="path3" />
    </g>
    <g
       style="mix-blend-mode:normal;"
       transform="translate(30 39)"
       id="g4">
      <path
         d="M17.2159 11.5909L23.4886 11.5909L23.4886 36.1364Q23.4886 39.5114 22.0739 41.9403Q20.6591 44.3693 18.1278 45.6733Q15.5966 46.9773 12.2216 46.9773Q9.17045 46.9773 6.71591 45.8778Q4.26136 44.7784 2.82955 42.6136Q1.39773 40.4489 1.39773 37.2273L7.6875 37.2273Q7.72159 39.3409 9.03409 40.5597Q10.3466 41.7784 12.4602 41.7784Q14.7443 41.7784 15.9716 40.3381Q17.1989 38.8977 17.2159 36.1364L17.2159 11.5909Z"
         style="fill:#EFC000;"
         id="path4" />
    </g>
    <path
       id="Oval"
       d="M0 12C0 5.37258 4.92487 0 11 0C17.0751 0 22 5.37258 22 12C22 18.6274 17.0751 24 11 24C4.92487 24 0 18.6274 0 12Z"
       style="fill:#EFC000;fill-rule:evenodd;mix-blend-mode:normal;"
       transform="translate(38 21)" />
    <g
       clip-path="url(#clip_path_2)"
       style="mix-blend-mode:normal;"
       transform="translate(43 20)"
       id="g6">
      <path
         d="M1.45384 22.2813L1.45384 5.55398L12.5291 5.55398L12.5291 8.46981L4.99041 8.46981L4.99041 12.4556L11.794 12.4556L11.794 15.3714L4.99041 15.3714L4.99041 22.2813L1.45384 22.2813Z"
         style="fill:#d13f00;fill-opacity:1"
         id="path5" />
      <path
         d="M5.12926 22.5344Q3.33239 22.5344 2.13175 21.5707Q0.931108 20.6069 0.931108 18.761Q0.931108 17.348 1.6131 16.568Q2.2951 15.788 3.38548 15.4327Q4.47585 15.0774 5.69283 14.9467Q7.35085 14.767 8.07369 14.6119Q8.79652 14.4567 8.79652 13.8196L8.79652 13.7706Q8.79652 12.8477 8.24929 12.3413Q7.70206 11.8349 6.67294 11.8349Q5.58665 11.8349 4.95366 12.3086Q4.32067 12.7823 4.10014 13.4276L1.33949 13.0355Q1.82955 11.3203 3.25479 10.4464Q4.68004 9.57244 6.65661 9.57244Q7.55504 9.57244 8.45348 9.7848Q9.35192 9.99716 10.0993 10.4872Q10.8466 10.9773 11.2999 11.8104Q11.7532 12.6435 11.7532 13.8849L11.7532 22.2813L8.91087 22.2813L8.91087 20.5579L8.81286 20.5579Q8.41264 21.3501 7.51012 21.9423Q6.6076 22.5344 5.12926 22.5344ZM5.89702 20.3619Q7.23651 20.3619 8.0206 19.5941Q8.80469 18.8263 8.80469 17.7809L8.80469 16.3026Q8.61683 16.4577 8.11452 16.5762Q7.61222 16.6946 7.04865 16.7763Q6.48509 16.858 6.09304 16.9151Q5.10476 17.054 4.44318 17.4583Q3.78161 17.8626 3.78161 18.712Q3.78161 19.5288 4.37784 19.9453Q4.97408 20.3619 5.89702 20.3619ZM14.7344 22.2813L14.7344 9.7358L17.5604 9.7358L17.5604 11.8675L17.7074 11.8675Q18.0994 10.7976 19.006 10.185Q19.9126 9.57244 21.1705 9.57244Q22.4364 9.57244 23.3185 10.185Q24.2006 10.7976 24.56 11.8675L24.6907 11.8675Q25.1072 10.8221 26.0996 10.1973Q27.092 9.57244 28.456 9.57244Q30.1875 9.57244 31.282 10.6669Q32.3764 11.7614 32.3764 13.8604L32.3764 22.2813L29.4116 22.2813L29.4116 14.3178Q29.4116 13.1499 28.7908 12.6067Q28.1701 12.0636 27.2717 12.0636Q26.2017 12.0636 25.6014 12.7292Q25.0011 13.3949 25.0011 14.4567L25.0011 22.2813L22.1016 22.2813L22.1016 14.1953Q22.1016 13.2234 21.5176 12.6435Q20.9336 12.0636 19.9943 12.0636Q19.0387 12.0636 18.3649 12.7782Q17.6911 13.4929 17.6911 14.6527L17.6911 22.2813L14.7344 22.2813ZM35.3821 22.2813L35.3821 9.7358L38.3388 9.7358L38.3388 22.2813L35.3821 22.2813ZM36.8686 7.95526Q36.158 7.95526 35.6557 7.48562Q35.1534 7.01598 35.1534 6.3544Q35.1534 5.68466 35.6557 5.21502Q36.158 4.74538 36.8686 4.74538Q37.571 4.74539 38.0733 5.21502Q38.5756 5.68466 38.5756 6.3544Q38.5756 7.01598 38.0733 7.48562Q37.571 7.95526 36.8686 7.95526ZM44.3338 5.55398L44.3338 22.2813L41.3771 22.2813L41.3771 5.55398L44.3338 5.55398ZM49.2099 26.9858Q48.6055 26.9858 48.095 26.8919Q47.5845 26.7979 47.2823 26.6754L47.9684 24.3722Q48.9403 24.6499 49.6019 24.4702Q50.2635 24.2905 50.6719 23.2205L50.9251 22.5426L46.3757 9.7358L49.5121 9.7358L52.4034 19.2102L52.5341 19.2102L55.4336 9.7358L58.5781 9.7358L53.555 23.8004Q53.0241 25.3033 51.9828 26.1445Q50.9414 26.9858 49.2099 26.9858Z"
         transform="translate(13.452 0)"
         style="fill:#d13f00;fill-opacity:1"
         id="path6" />
    </g>
    <rect
       id="Rectangle"
       width="54"
       height="2"
       style="fill:#EFC000;fill-rule:evenodd;mix-blend-mode:normal;"
       transform="translate(59 52)" />
    <g
       clip-path="url(#clip_path_4)"
       style="mix-blend-mode:normal;"
       transform="translate(58 54)"
       id="g7">
      <path
         d="M0.632102 9.6875L0.632102 2.41477L3.50142 2.41477Q4.74077 2.41477 5.42436 3.06108Q6.10795 3.70739 6.10795 4.79048Q6.10795 5.53622 5.77592 6.06534Q5.44389 6.59446 4.82244 6.8608L6.36719 9.6875L4.66974 9.6875L3.2919 7.10938L2.16974 7.10938L2.16974 9.6875L0.632102 9.6875ZM2.16974 5.87358L3.21378 5.87358Q4.52415 5.87358 4.52415 4.79048Q4.52415 3.67188 3.20668 3.67188L2.16974 3.67188L2.16974 5.87358ZM9.55966 9.79403Q8.72159 9.79403 8.11435 9.45135Q7.5071 9.10866 7.1804 8.47834Q6.85369 7.84801 6.85369 6.98509Q6.85369 6.14347 7.1804 5.50781Q7.5071 4.87216 8.10192 4.51705Q8.69673 4.16193 9.49929 4.16193Q10.2202 4.16193 10.8008 4.46733Q11.3814 4.77273 11.7223 5.38885Q12.0632 6.00497 12.0632 6.93182L12.0632 7.3473L8.34872 7.3473L8.34872 7.35085Q8.34872 7.96165 8.68253 8.31321Q9.01634 8.66477 9.58452 8.66477Q9.96449 8.66477 10.2415 8.50497Q10.5185 8.34517 10.6321 8.03267L12.0313 8.125Q11.8714 8.88494 11.2216 9.33949Q10.5717 9.79403 9.55966 9.79403ZM8.34872 6.4098L10.6392 6.4098Q10.6357 5.9233 10.3267 5.60724Q10.0178 5.29119 9.52415 5.29119Q9.01989 5.29119 8.69673 5.6179Q8.37358 5.9446 8.34872 6.4098ZM17.5888 5.78835L16.2038 5.87358Q16.147 5.6108 15.9162 5.42259Q15.6854 5.23438 15.2912 5.23438Q14.9396 5.23438 14.6964 5.38175Q14.4531 5.52912 14.4567 5.77415Q14.4531 5.96946 14.6112 6.1044Q14.7692 6.23935 15.1491 6.32102L16.1364 6.51989Q17.7095 6.84304 17.7131 7.99716Q17.7131 8.53338 17.3988 8.93821Q17.0845 9.34304 16.5376 9.56854Q15.9908 9.79403 15.2841 9.79403Q14.201 9.79403 13.5582 9.34126Q12.9155 8.88849 12.8089 8.10724L14.2969 8.02912Q14.3679 8.36293 14.6254 8.53338Q14.8828 8.70384 15.2876 8.70384Q15.6854 8.70384 15.9286 8.54759Q16.1719 8.39134 16.1754 8.14986Q16.1648 7.74503 15.4759 7.60653L14.5313 7.41832Q12.9474 7.10227 12.9545 5.85938Q12.951 5.07102 13.5849 4.61648Q14.2188 4.16193 15.2663 4.16193Q16.2997 4.16193 16.8945 4.59872Q17.4893 5.03551 17.5888 5.78835ZM21.5696 4.23295L21.5696 5.36932L20.5433 5.36932L20.5433 8.01136Q20.5433 8.32386 20.6854 8.43395Q20.8274 8.54403 21.0547 8.54403Q21.1612 8.54403 21.2678 8.5245Q21.3743 8.50497 21.4311 8.49432L21.669 9.62003Q21.5554 9.65554 21.3494 9.70348Q21.1435 9.75142 20.8487 9.76207Q20.0249 9.79759 19.5259 9.40518Q19.027 9.01278 19.0305 8.21023L19.0305 5.36932L18.2848 5.36932L18.2848 4.23295L19.0305 4.23295L19.0305 2.92614L20.5433 2.92614L20.5433 4.23295L21.5696 4.23295ZM24.1087 9.79048Q23.3274 9.79048 22.8125 9.3821Q22.2976 8.97372 22.2976 8.16406Q22.2976 7.55327 22.5852 7.20526Q22.8729 6.85724 23.3398 6.69567Q23.8068 6.53409 24.3466 6.48438Q25.0568 6.41335 25.3622 6.33523Q25.6676 6.2571 25.6676 5.99432L25.6676 5.97301Q25.6676 5.63565 25.4563 5.45099Q25.245 5.26634 24.858 5.26634Q24.4496 5.26634 24.2081 5.44389Q23.9666 5.62145 23.8885 5.89489L22.4893 5.78125Q22.6456 5.03551 23.2653 4.59872Q23.8849 4.16193 24.8651 4.16193Q25.4723 4.16193 26.0014 4.35369Q26.5305 4.54545 26.8555 4.95206Q27.1804 5.35866 27.1804 6.00852L27.1804 9.6875L25.7457 9.6875L25.7457 8.93111L25.7031 8.93111Q25.5043 9.31108 25.1083 9.55078Q24.7124 9.79048 24.1087 9.79048ZM24.5419 8.74645Q25.0391 8.74645 25.3587 8.45703Q25.6783 8.16761 25.6783 7.73793L25.6783 7.15909Q25.5895 7.21946 25.4031 7.26563Q25.2166 7.31179 25.0053 7.34553Q24.794 7.37926 24.6271 7.40412Q24.2294 7.46094 23.9862 7.62784Q23.7429 7.79474 23.7429 8.11435Q23.7429 8.42685 23.9684 8.58665Q24.1939 8.74645 24.5419 8.74645ZM31.8537 7.36506L31.8537 4.23295L33.3665 4.23295L33.3665 9.6875L31.9141 9.6875L31.9141 8.69673L31.8572 8.69673Q31.6726 9.17614 31.2447 9.46733Q30.8168 9.75852 30.2024 9.75852Q29.3786 9.75852 28.869 9.20987Q28.3594 8.66122 28.3558 7.70597L28.3558 4.23295L29.8686 4.23295L29.8686 7.43608Q29.8722 7.91903 30.1278 8.19957Q30.3835 8.48011 30.8132 8.48011Q31.2216 8.48011 31.5394 8.19602Q31.8572 7.91193 31.8537 7.36506ZM34.5739 9.6875L34.5739 4.23295L36.0405 4.23295L36.0405 5.18466L36.0973 5.18466Q36.2465 4.67685 36.598 4.41584Q36.9496 4.15483 37.4077 4.15483Q37.6598 4.15483 37.8835 4.2081L37.8835 5.55043Q37.777 5.51491 37.5888 5.49183Q37.4006 5.46875 37.2443 5.46875Q36.7436 5.46875 36.4151 5.78303Q36.0867 6.0973 36.0867 6.60156L36.0867 9.6875L34.5739 9.6875ZM40.0639 9.79048Q39.2827 9.79048 38.7678 9.3821Q38.2528 8.97372 38.2528 8.16406Q38.2528 7.55327 38.5405 7.20526Q38.8281 6.85724 39.2951 6.69567Q39.7621 6.53409 40.3018 6.48438Q41.0121 6.41335 41.3175 6.33523Q41.6229 6.2571 41.6229 5.99432L41.6229 5.97301Q41.6229 5.63565 41.4116 5.45099Q41.2003 5.26634 40.8132 5.26634Q40.4048 5.26634 40.1634 5.44389Q39.9219 5.62145 39.8438 5.89489L38.4446 5.78125Q38.6009 5.03551 39.2205 4.59872Q39.8402 4.16193 40.8203 4.16193Q41.4276 4.16193 41.9567 4.35369Q42.4858 4.54545 42.8107 4.95206Q43.1357 5.35866 43.1357 6.00852L43.1357 9.6875L41.701 9.6875L41.701 8.93111L41.6584 8.93111Q41.4595 9.31108 41.0636 9.55078Q40.6676 9.79048 40.0639 9.79048ZM40.4972 8.74645Q40.9943 8.74645 41.3139 8.45703Q41.6335 8.16761 41.6335 7.73793L41.6335 7.15909Q41.5447 7.21946 41.3583 7.26563Q41.1719 7.31179 40.9606 7.34553Q40.7493 7.37926 40.5824 7.40412Q40.1847 7.46094 39.9414 7.62784Q39.6982 7.79474 39.6982 8.11435Q39.6982 8.42685 39.9237 8.58665Q40.1491 8.74645 40.4972 8.74645ZM45.8239 6.53409L45.8239 9.6875L44.3111 9.6875L44.3111 4.23295L45.7528 4.23295L45.7528 5.19531L45.8168 5.19531Q46.0014 4.71946 46.4258 4.4407Q46.8501 4.16193 47.4574 4.16193Q48.3097 4.16193 48.8246 4.71058Q49.3395 5.25923 49.3395 6.21449L49.3395 9.6875L47.8267 9.6875L47.8267 6.48438Q47.8303 5.98366 47.571 5.70135Q47.3118 5.41903 46.8572 5.41903Q46.3992 5.41903 46.1133 5.712Q45.8274 6.00497 45.8239 6.53409ZM53.4304 4.23295L53.4304 5.36932L52.4041 5.36932L52.4041 8.01136Q52.4041 8.32386 52.5462 8.43395Q52.6882 8.54403 52.9155 8.54403Q53.022 8.54403 53.1286 8.5245Q53.2351 8.50497 53.2919 8.49432L53.5298 9.62003Q53.4162 9.65554 53.2102 9.70348Q53.0043 9.75142 52.7095 9.76207Q51.8857 9.79759 51.3867 9.40518Q50.8878 9.01278 50.8913 8.21023L50.8913 5.36932L50.1456 5.36932L50.1456 4.23295L50.8913 4.23295L50.8913 2.92614L52.4041 2.92614L52.4041 4.23295L53.4304 4.23295Z"
         style="fill:#d13f00;fill-opacity:1"
         id="path7" />
    </g>
  </g>
</svg>
